<?xml version="1.0" encoding="UTF-8"?>
<!DOCTYPE svg PUBLIC "-//W3C//DTD SVG 1.1//EN" "http://www.w3.org/Graphics/SVG/1.1/DTD/svg11.dtd">
<svg xmlns="http://www.w3.org/2000/svg" version="1.1" width="200px" height="143px" style="shape-rendering:geometricPrecision; text-rendering:geometricPrecision; image-rendering:optimizeQuality; fill-rule:evenodd; clip-rule:evenodd" xmlns:xlink="http://www.w3.org/1999/xlink">
<g><path style="opacity:1" fill="#fb3728" d="M 108.5,2.5 C 123.748,7.68531 139.415,11.6853 155.5,14.5C 157.099,14.2322 158.432,14.5655 159.5,15.5C 159.5,15.8333 159.5,16.1667 159.5,16.5C 153.597,15.3491 147.93,16.0157 142.5,18.5C 142.918,17.7784 143.584,17.2784 144.5,17C 130.466,12.9929 116.299,9.49289 102,6.5C 87.0714,8.81903 72.2381,11.6524 57.5,15C 58.056,15.3826 58.3893,15.8826 58.5,16.5C 55.3728,15.0027 52.0395,14.0027 48.5,13.5C 64.6885,10.2964 81.0218,7.12978 97.5,4C 98.4158,3.72158 99.0825,3.22158 99.5,2.5C 102.5,1.16667 105.5,1.16667 108.5,2.5 Z"/></g>
<g><path style="opacity:1" fill="#fefa41" d="M 142.5,18.5 C 126.922,22.7856 111.255,26.7856 95.5,30.5C 83.0305,26.2318 70.6972,21.5651 58.5,16.5C 58.3893,15.8826 58.056,15.3826 57.5,15C 72.2381,11.6524 87.0714,8.81903 102,6.5C 116.299,9.49289 130.466,12.9929 144.5,17C 143.584,17.2784 142.918,17.7784 142.5,18.5 Z"/></g>
<g><path style="opacity:0.769" fill="#c76079" d="M 108.5,2.5 C 124.392,6.0558 140.059,10.0558 155.5,14.5C 139.415,11.6853 123.748,7.68531 108.5,2.5 Z"/></g>
<g><path style="opacity:0.965" fill="#d35669" d="M 99.5,2.5 C 99.0825,3.22158 98.4158,3.72158 97.5,4C 81.0218,7.12978 64.6885,10.2964 48.5,13.5C 45.5,13.5 42.5,13.5 39.5,13.5C 59.284,9.34524 79.284,5.67857 99.5,2.5 Z"/></g>
<g><path style="opacity:0.38" fill="#bf6a80" d="M 159.5,16.5 C 159.5,16.1667 159.5,15.8333 159.5,15.5C 162.781,15.4203 165.781,16.087 168.5,17.5C 168.737,18.791 168.404,19.791 167.5,20.5C 165.661,17.8653 162.994,16.5319 159.5,16.5 Z"/></g>
<g><path style="opacity:1" fill="#fc1209" d="M 39.5,13.5 C 42.5,13.5 45.5,13.5 48.5,13.5C 52.0395,14.0027 55.3728,15.0027 58.5,16.5C 70.6972,21.5651 83.0305,26.2318 95.5,30.5C 111.255,26.7856 126.922,22.7856 142.5,18.5C 147.93,16.0157 153.597,15.3491 159.5,16.5C 162.994,16.5319 165.661,17.8653 167.5,20.5C 167.5,20.8333 167.5,21.1667 167.5,21.5C 143.213,29.3216 118.88,36.9883 94.5,44.5C 93.5,44.5 92.5,44.5 91.5,44.5C 91.719,43.325 91.3857,42.325 90.5,41.5C 72.0596,32.9465 54.0596,23.9465 36.5,14.5C 37.791,14.7373 38.791,14.404 39.5,13.5 Z"/></g>
<g><path style="opacity:0.024" fill="#5571d8" d="M 168.5,17.5 C 169.674,18.5137 170.34,19.847 170.5,21.5C 169.833,21.5 169.167,21.5 168.5,21.5C 168.167,21.5 167.833,21.5 167.5,21.5C 167.5,21.1667 167.5,20.8333 167.5,20.5C 168.404,19.791 168.737,18.791 168.5,17.5 Z"/></g>
<g><path style="opacity:1" fill="#b90612" d="M 36.5,14.5 C 54.0596,23.9465 72.0596,32.9465 90.5,41.5C 91.3857,42.325 91.719,43.325 91.5,44.5C 92.5,44.5 93.5,44.5 94.5,44.5C 94.5,45.1667 94.1667,45.5 93.5,45.5C 93.1667,45.5 92.8333,45.5 92.5,45.5C 73.5848,37.0426 54.9182,28.0426 36.5,18.5C 35.3143,17.0387 35.3143,15.7054 36.5,14.5 Z"/></g>
<g><path style="opacity:1" fill="#14ae36" d="M 167.5,21.5 C 167.833,21.5 168.167,21.5 168.5,21.5C 169.061,22.9085 169.395,24.4085 169.5,26C 167.376,36.0342 166.043,46.2009 165.5,56.5C 165.369,60.9522 164.702,65.2856 163.5,69.5C 162.778,69.9175 162.278,70.5842 162,71.5C 160.504,80.8011 159.338,90.1345 158.5,99.5C 138.881,113.316 118.881,126.65 98.5,139.5C 96.78,137.342 95.9467,134.675 96,131.5C 95.6667,103.5 95.3333,75.5 95,47.5C 94.2828,46.9558 93.7828,46.2891 93.5,45.5C 94.1667,45.5 94.5,45.1667 94.5,44.5C 118.88,36.9883 143.213,29.3216 167.5,21.5 Z"/></g>
<g><path style="opacity:0.996" fill="#39a16f" d="M 168.5,21.5 C 169.167,21.5 169.833,21.5 170.5,21.5C 171.124,21.9169 171.457,22.5836 171.5,23.5C 169.587,34.655 167.587,45.655 165.5,56.5C 166.043,46.2009 167.376,36.0342 169.5,26C 169.395,24.4085 169.061,22.9085 168.5,21.5 Z"/></g>
<g><path style="opacity:1" fill="#f5fd2f" d="M 155.5,41.5 C 156.5,41.5 157.5,41.5 158.5,41.5C 156.374,59.2537 153.708,76.9204 150.5,94.5C 137.084,102.959 123.584,111.292 110,119.5C 109.189,99.8119 109.522,80.1452 111,60.5C 125.958,54.2435 140.791,47.9102 155.5,41.5 Z"/></g>
<g><path style="opacity:0.8" fill="#555cb4" d="M 39.5,13.5 C 38.791,14.404 37.791,14.7373 36.5,14.5C 35.3143,15.7054 35.3143,17.0387 36.5,18.5C 35.209,18.2627 34.209,18.596 33.5,19.5C 36.3784,37.102 38.7117,54.7687 40.5,72.5C 37.3595,54.8249 34.3595,36.9915 31.5,19C 33.5764,17.7562 34.5764,15.9229 34.5,13.5C 36.1667,13.5 37.8333,13.5 39.5,13.5 Z"/></g>
<g><path style="opacity:1" fill="#1b22cd" d="M 33.5,19.5 C 34.209,18.596 35.209,18.2627 36.5,18.5C 54.9182,28.0426 73.5848,37.0426 92.5,45.5C 92.5,63.1667 92.5,80.8333 92.5,98.5C 92.8325,112.183 92.4992,125.85 91.5,139.5C 90.8933,139.376 90.56,139.043 90.5,138.5C 90.2011,107.809 89.2011,77.142 87.5,46.5C 69.4423,37.4712 51.4423,28.4712 33.5,19.5 Z"/></g>
<g><path style="opacity:1" fill="#1a20a6" d="M 33.5,19.5 C 51.4423,28.4712 69.4423,37.4712 87.5,46.5C 89.2011,77.142 90.2011,107.809 90.5,138.5C 85.1104,133.106 79.4437,128.106 73.5,123.5C 66.5,117.167 59.8333,110.5 53.5,103.5C 51.2754,99.7653 48.442,96.432 45,93.5C 43.8709,87.5211 42.8709,81.5211 42,75.5C 41.6174,74.944 41.1174,74.6107 40.5,74.5C 40.5,73.8333 40.5,73.1667 40.5,72.5C 38.7117,54.7687 36.3784,37.102 33.5,19.5 Z"/></g>
<g><path style="opacity:1" fill="#a9a927" d="M 78.5,87.5 C 78.9916,97.345 78.9916,107.012 78.5,116.5C 68.5369,107.706 58.7036,98.7063 49,89.5C 46.4524,73.1663 43.9524,56.833 41.5,40.5C 41.8333,39.5 42.1667,38.5 42.5,37.5C 53.8333,44.5 65.1667,51.5 76.5,58.5C 77.7061,68.1305 78.3727,77.7972 78.5,87.5 Z"/></g>
<g><path style="opacity:0.494" fill="#3a9e78" d="M 163.5,69.5 C 162.245,79.6985 160.578,89.6985 158.5,99.5C 159.338,90.1345 160.504,80.8011 162,71.5C 162.278,70.5842 162.778,69.9175 163.5,69.5 Z"/></g>
<g><path style="opacity:0.58" fill="#4557b6" d="M 40.5,74.5 C 41.1174,74.6107 41.6174,74.944 42,75.5C 42.8709,81.5211 43.8709,87.5211 45,93.5C 48.442,96.432 51.2754,99.7653 53.5,103.5C 49.502,100.335 46.002,96.6681 43,92.5C 42.1185,86.4963 41.2852,80.4963 40.5,74.5 Z"/></g>
<g><path style="opacity:1" fill="#0a7a2e" d="M 92.5,45.5 C 92.8333,45.5 93.1667,45.5 93.5,45.5C 93.7828,46.2891 94.2828,46.9558 95,47.5C 95.3333,75.5 95.6667,103.5 96,131.5C 95.9467,134.675 96.78,137.342 98.5,139.5C 98.0269,140.906 97.0269,141.573 95.5,141.5C 95.5386,140.244 95.0386,139.244 94,138.5C 93.831,124.994 93.331,111.66 92.5,98.5C 92.5,80.8333 92.5,63.1667 92.5,45.5 Z"/></g>
<g><path style="opacity:1" fill="#817f4f" d="M 78.5,87.5 C 80.1046,97.6358 80.6046,107.969 80,118.5C 79.2828,117.956 78.7828,117.289 78.5,116.5C 78.9916,107.012 78.9916,97.345 78.5,87.5 Z"/></g>
<g><path style="opacity:1" fill="#33399d" d="M 92.5,98.5 C 93.331,111.66 93.831,124.994 94,138.5C 95.0386,139.244 95.5386,140.244 95.5,141.5C 93.7988,141.034 92.2988,141.034 91,141.5C 84.9638,135.631 79.1305,129.631 73.5,123.5C 79.4437,128.106 85.1104,133.106 90.5,138.5C 90.56,139.043 90.8933,139.376 91.5,139.5C 92.4992,125.85 92.8325,112.183 92.5,98.5 Z"/></g>
</svg>
